<?xml version="1.0" standalone="no"?>
<!DOCTYPE svg PUBLIC "-//W3C//DTD SVG 20010904//EN"
 "http://www.w3.org/TR/2001/REC-SVG-20010904/DTD/svg10.dtd">
<svg version="1.0" xmlns="http://www.w3.org/2000/svg"
 width="1314.000000pt" height="868.000000pt" viewBox="0 0 1314.000000 868.000000"
 preserveAspectRatio="xMidYMid meet">
<metadata>
Created by potrace 1.16, written by Peter Selinger 2001-2019
</metadata>
<g transform="translate(0.000000,868.000000) scale(0.100000,-0.100000)"
fill="#000000" stroke="none">
<path d="M4467 5182 l-57 -58 0 -332 0 -332 100 0 100 0 0 150 0 150 198 2
197 3 0 85 0 85 -197 3 -198 2 0 65 0 65 230 0 230 0 0 85 0 85 -273 0 -273 0
-57 -58z"/>
<path d="M5190 4908 l0 -332 57 -58 57 -58 273 0 273 0 0 85 0 85 -230 0 -230
0 0 65 0 65 198 2 197 3 0 85 0 85 -197 3 -198 2 0 65 0 65 230 0 230 0 0 85
0 85 -330 0 -330 0 0 -332z"/>
<path d="M6010 4908 l0 -332 57 -58 57 -58 253 0 253 0 0 85 0 85 -210 0 -210
0 0 305 0 305 -100 0 -100 0 0 -332z"/>
<path d="M6807 5182 l-57 -58 0 -125 0 -126 59 -56 60 -57 190 0 191 0 0 -65
0 -65 -148 0 -148 0 -29 30 c-27 28 -34 30 -102 30 l-73 0 0 -57 c0 -56 1 -58
57 -115 l57 -58 236 0 236 0 57 58 57 58 0 120 0 120 -63 62 -63 62 -187 0
-187 0 0 65 0 65 143 0 143 0 29 -30 c27 -28 33 -30 107 -30 l78 0 0 57 c0 56
-1 58 -57 115 l-57 58 -236 0 -236 0 -57 -58z"/>
<path d="M7610 4908 l0 -332 57 -58 57 -58 226 0 226 0 57 58 57 58 0 332 0
332 -100 0 -100 0 0 -305 0 -305 -140 0 -140 0 0 305 0 305 -100 0 -100 0 0
-332z"/>
<path d="M8450 4850 l0 -390 100 0 100 0 2 217 3 216 150 -216 150 -217 93 0
92 0 0 390 0 390 -105 0 -105 0 -2 -211 -3 -212 -148 212 -148 211 -90 0 -89
0 0 -390z"/>
<path d="M9290 4850 l0 -390 100 0 100 0 0 217 c0 167 3 214 12 205 6 -6 75
-103 153 -214 l141 -203 92 -3 92 -3 0 391 0 390 -100 0 -100 0 -2 -216 -3
-216 -150 213 -151 214 -92 3 -92 3 0 -391z"/>
<path d="M10100 5190 c0 -47 8 -64 130 -259 l130 -209 0 -131 0 -131 100 0
100 0 0 125 0 125 135 219 c122 198 135 223 135 265 l0 46 -90 0 -89 0 -92
-155 c-50 -85 -94 -155 -98 -155 -3 1 -46 70 -96 155 l-89 155 -88 0 -88 0 0
-50z"/>
<path d="M3126 5205 c-42 -22 -55 -44 -56 -91 0 -40 19 -71 56 -92 15 -9 16
-23 8 -150 -6 -78 -12 -143 -14 -146 -3 -2 -58 6 -123 17 -109 20 -120 24
-133 49 -16 30 -49 43 -89 35 -21 -3 -35 7 -84 62 -50 56 -57 69 -50 89 18 49
-17 102 -67 102 -12 0 -33 -9 -48 -21 -58 -45 -15 -138 58 -126 34 5 39 2 95
-60 54 -60 58 -68 49 -94 -6 -19 -6 -34 2 -49 10 -18 3 -33 -46 -111 l-57 -90
-36 6 c-27 4 -48 0 -85 -19 -45 -23 -51 -24 -78 -10 -21 11 -28 22 -28 45 0
42 -14 64 -49 78 -23 10 -34 10 -53 0 -51 -27 -61 -69 -27 -113 22 -28 75 -36
96 -15 9 9 20 6 46 -10 33 -20 34 -22 29 -75 -3 -44 0 -62 17 -90 l22 -35 -26
-39 c-25 -38 -29 -40 -65 -35 -35 5 -43 2 -75 -30 -46 -46 -48 -92 -6 -139 77
-86 210 3 166 109 -14 34 -14 36 16 75 26 32 36 38 58 33 14 -3 40 -1 58 4
l31 9 71 -106 c64 -97 69 -107 55 -126 -21 -31 -17 -54 16 -88 25 -24 36 -29
58 -24 89 21 78 146 -12 146 -33 0 -38 5 -102 106 -56 89 -66 109 -56 123 46
63 50 125 11 175 l-20 26 54 87 c45 74 58 89 83 91 16 2 38 12 49 22 20 18 23
18 143 -2 l122 -22 0 -56 c0 -31 -3 -104 -6 -163 l-7 -105 -40 -16 c-37 -14
-42 -14 -58 0 -14 12 -16 21 -9 35 16 30 11 59 -15 84 -31 32 -69 32 -100 0
-32 -31 -32 -69 1 -102 22 -21 31 -24 64 -19 33 5 41 3 50 -14 8 -15 7 -26 -6
-44 -21 -34 -20 -108 3 -146 11 -19 37 -40 66 -53 l47 -22 0 -75 c0 -41 3 -92
6 -112 6 -32 4 -38 -10 -38 -10 0 -31 -13 -47 -29 -23 -23 -29 -38 -29 -71 0
-33 6 -48 29 -71 64 -64 171 -16 171 77 0 29 -58 94 -84 94 -14 0 -16 16 -16
113 l0 113 41 18 c24 11 49 32 60 51 l19 32 242 -48 c133 -27 242 -50 243 -51
1 -2 7 -16 12 -33 14 -43 69 -78 112 -71 72 11 111 88 76 151 -36 67 -127 74
-176 13 -15 -19 -19 -19 -256 28 -227 45 -242 50 -246 71 -5 28 -14 23 135 88
l121 53 29 -29 c83 -82 232 -31 245 84 7 64 -2 91 -43 131 l-36 35 16 53 c13
46 20 55 49 66 32 12 57 45 57 78 0 25 -47 64 -78 64 -35 0 -72 -37 -72 -72 0
-14 10 -37 21 -52 20 -26 21 -30 7 -79 l-15 -52 -54 -5 c-30 -3 -64 -12 -76
-20 -20 -13 -25 -13 -39 1 -12 13 -14 24 -6 51 14 53 -5 99 -51 121 -46 23
-79 17 -119 -23 l-29 -30 -76 12 -75 12 6 95 c12 168 17 202 35 208 52 19 82
83 62 135 -19 51 -88 78 -135 53z m132 -541 c35 -5 46 -12 53 -33 24 -62 88
-93 138 -68 27 14 31 13 47 -4 14 -16 15 -23 4 -49 -7 -16 -12 -47 -12 -68 l1
-39 -132 -57 c-112 -48 -132 -54 -139 -41 -5 8 -27 24 -50 36 -37 19 -40 23
-34 52 3 18 8 90 12 160 l7 129 31 -6 c17 -3 50 -8 74 -12z m452 -139 c73 -70
22 -190 -81 -190 -74 0 -128 86 -98 156 29 71 122 88 179 34z m-1091 -39 c53
-28 66 -97 26 -144 -30 -36 -69 -45 -112 -27 -61 26 -74 106 -24 156 33 32 67
37 110 15z m551 -193 c22 -20 33 -40 37 -69 5 -36 1 -46 -25 -75 -26 -29 -37
-34 -76 -34 -58 0 -95 33 -103 93 -5 37 -2 45 30 77 45 45 92 48 137 8z"/>
<path d="M4410 4150 l0 -70 90 0 90 0 0 -230 0 -230 80 0 80 0 0 230 0 230 90
0 90 0 0 70 0 70 -260 0 -260 0 0 -70z"/>
<path d="M5020 3952 l0 -268 33 -32 33 -32 227 0 227 0 0 60 0 60 -180 0 -180
0 0 50 0 50 155 0 155 0 0 70 0 70 -155 0 -155 0 0 50 0 50 180 0 180 0 0 70
0 70 -260 0 -260 0 0 -268z"/>
<path d="M5717 4172 l-47 -48 0 -220 0 -220 33 -32 33 -32 195 0 195 0 32 33
c28 28 32 40 32 85 l0 52 -53 0 c-44 0 -58 -4 -77 -25 -22 -24 -30 -25 -127
-25 l-103 0 0 170 0 170 103 0 c97 0 105 -1 127 -25 19 -21 33 -25 77 -25 l53
0 0 53 c0 49 -3 56 -43 95 l-43 42 -170 0 -170 0 -47 -48z"/>
<path d="M6320 3920 l0 -300 80 0 80 0 0 110 0 110 115 0 115 0 0 -110 0 -110
80 0 80 0 0 300 0 300 -80 0 -80 0 0 -120 0 -120 -115 0 -115 0 0 120 0 120
-80 0 -80 0 0 -300z"/>
<path d="M6990 3920 l0 -300 80 0 80 0 2 162 3 163 113 -163 113 -162 79 0 80
0 0 300 0 300 -80 0 -80 0 -2 -172 -3 -173 -120 172 -120 173 -72 0 -73 0 0
-300z"/>
<path d="M7707 4172 l-47 -48 0 -215 0 -215 38 -37 38 -37 200 0 200 0 37 38
37 38 0 215 0 215 -48 47 -48 47 -180 0 -180 0 -47 -48z m343 -262 l0 -170
-115 0 -115 0 0 170 0 170 115 0 115 0 0 -170z"/>
<path d="M8330 3957 l0 -263 38 -37 38 -37 212 0 212 0 0 60 0 60 -170 0 -170
0 0 240 0 240 -80 0 -80 0 0 -263z"/>
<path d="M8967 4172 l-47 -48 0 -215 0 -215 38 -37 38 -37 200 0 200 0 37 38
37 38 0 215 0 215 -48 47 -48 47 -180 0 -180 0 -47 -48z m343 -262 l0 -170
-115 0 -115 0 0 170 0 170 115 0 115 0 0 -170z"/>
<path d="M9637 4172 l-47 -48 0 -215 0 -215 38 -37 38 -37 210 0 210 0 32 33
32 33 0 147 0 147 -150 0 -150 0 0 -70 0 -70 70 0 70 0 0 -50 0 -50 -120 0
-120 0 0 170 0 170 118 0 c113 0 120 -1 142 -25 20 -21 33 -25 82 -25 l58 0 0
48 c0 44 -4 52 -48 95 l-48 47 -185 0 -185 0 -47 -48z"/>
<path d="M10250 4179 c0 -34 16 -67 105 -209 l105 -169 0 -91 0 -90 80 0 80 0
0 93 0 93 105 171 c83 134 105 178 105 207 l0 36 -72 0 -73 -1 -73 -125 c-66
-113 -75 -124 -86 -108 -7 11 -41 67 -75 127 l-63 107 -69 0 -69 0 0 -41z"/>
</g>
</svg>
